<svg id="visual" viewBox="0 0 1920 1080" width="1920" height="1080" xmlns="http://www.w3.org/2000/svg" xmlns:xlink="http://www.w3.org/1999/xlink" version="1.1"><rect x="0" y="0" width="1920" height="1080" fill="#001220"></rect><path d="M0 437L45.7 448C91.3 459 182.7 481 274.2 462.3C365.7 443.7 457.3 384.3 548.8 333.2C640.3 282 731.7 239 823 242.8C914.3 246.7 1005.7 297.3 1097 345.7C1188.3 394 1279.7 440 1371.2 460.3C1462.7 480.7 1554.3 475.3 1645.8 449.7C1737.3 424 1828.7 378 1874.3 355L1920 332L1920 1081L1874.3 1081C1828.7 1081 1737.3 1081 1645.8 1081C1554.3 1081 1462.7 1081 1371.2 1081C1279.7 1081 1188.3 1081 1097 1081C1005.7 1081 914.3 1081 823 1081C731.7 1081 640.3 1081 548.8 1081C457.3 1081 365.7 1081 274.2 1081C182.7 1081 91.3 1081 45.7 1081L0 1081Z" fill="#fa7268"></path><path d="M0 509L45.7 510.7C91.3 512.3 182.7 515.7 274.2 510.8C365.7 506 457.3 493 548.8 464.2C640.3 435.3 731.7 390.7 823 370C914.3 349.3 1005.7 352.7 1097 359.5C1188.3 366.3 1279.7 376.7 1371.2 399C1462.7 421.3 1554.3 455.7 1645.8 468.7C1737.3 481.7 1828.7 473.3 1874.3 469.2L1920 465L1920 1081L1874.3 1081C1828.7 1081 1737.3 1081 1645.8 1081C1554.3 1081 1462.7 1081 1371.2 1081C1279.7 1081 1188.3 1081 1097 1081C1005.7 1081 914.3 1081 823 1081C731.7 1081 640.3 1081 548.8 1081C457.3 1081 365.7 1081 274.2 1081C182.7 1081 91.3 1081 45.7 1081L0 1081Z" fill="#ef5f67"></path><path d="M0 514L45.7 530.8C91.3 547.7 182.7 581.3 274.2 620.5C365.7 659.7 457.3 704.3 548.8 727.5C640.3 750.7 731.7 752.3 823 735.7C914.3 719 1005.7 684 1097 674.3C1188.3 664.7 1279.7 680.3 1371.2 685.5C1462.7 690.7 1554.3 685.3 1645.8 665.8C1737.3 646.3 1828.7 612.7 1874.3 595.8L1920 579L1920 1081L1874.3 1081C1828.7 1081 1737.3 1081 1645.8 1081C1554.3 1081 1462.7 1081 1371.2 1081C1279.7 1081 1188.3 1081 1097 1081C1005.7 1081 914.3 1081 823 1081C731.7 1081 640.3 1081 548.8 1081C457.3 1081 365.7 1081 274.2 1081C182.7 1081 91.3 1081 45.7 1081L0 1081Z" fill="#e34c67"></path><path d="M0 682L45.7 682.7C91.3 683.3 182.7 684.7 274.2 694.7C365.7 704.7 457.3 723.3 548.8 746.7C640.3 770 731.7 798 823 818.8C914.3 839.7 1005.7 853.3 1097 841.8C1188.3 830.3 1279.7 793.7 1371.2 778.7C1462.7 763.7 1554.3 770.3 1645.8 781.5C1737.3 792.7 1828.7 808.3 1874.3 816.2L1920 824L1920 1081L1874.3 1081C1828.7 1081 1737.3 1081 1645.8 1081C1554.3 1081 1462.7 1081 1371.2 1081C1279.7 1081 1188.3 1081 1097 1081C1005.7 1081 914.3 1081 823 1081C731.7 1081 640.3 1081 548.8 1081C457.3 1081 365.7 1081 274.2 1081C182.7 1081 91.3 1081 45.7 1081L0 1081Z" fill="#d53867"></path><path d="M0 898L45.7 889.3C91.3 880.7 182.7 863.3 274.2 876.2C365.7 889 457.3 932 548.8 954.2C640.3 976.3 731.7 977.7 823 978.2C914.3 978.7 1005.7 978.3 1097 957.3C1188.3 936.3 1279.7 894.7 1371.2 894.2C1462.7 893.7 1554.3 934.3 1645.8 942.7C1737.3 951 1828.7 927 1874.3 915L1920 903L1920 1081L1874.3 1081C1828.7 1081 1737.3 1081 1645.8 1081C1554.3 1081 1462.7 1081 1371.2 1081C1279.7 1081 1188.3 1081 1097 1081C1005.7 1081 914.3 1081 823 1081C731.7 1081 640.3 1081 548.8 1081C457.3 1081 365.7 1081 274.2 1081C182.7 1081 91.3 1081 45.7 1081L0 1081Z" fill="#c62368"></path></svg>