<svg id="visual" viewBox="0 0 1920 1080" width="1920" height="1080" xmlns="http://www.w3.org/2000/svg" xmlns:xlink="http://www.w3.org/1999/xlink" version="1.1"><rect x="0" y="0" width="1920" height="1080" fill="#FFC107"></rect><path d="M0 315L45.7 302.3C91.3 289.7 182.7 264.3 274.2 270.2C365.7 276 457.3 313 548.8 346.3C640.3 379.7 731.7 409.3 823 393.7C914.3 378 1005.7 317 1097 304.3C1188.3 291.7 1279.7 327.3 1371.2 371.8C1462.7 416.3 1554.3 469.7 1645.8 449.7C1737.3 429.7 1828.7 336.3 1874.3 289.7L1920 243L1920 1081L1874.3 1081C1828.7 1081 1737.3 1081 1645.8 1081C1554.3 1081 1462.7 1081 1371.2 1081C1279.7 1081 1188.3 1081 1097 1081C1005.7 1081 914.3 1081 823 1081C731.7 1081 640.3 1081 548.8 1081C457.3 1081 365.7 1081 274.2 1081C182.7 1081 91.3 1081 45.7 1081L0 1081Z" fill="#ff3f00"></path><path d="M0 516L45.7 523.8C91.3 531.7 182.7 547.3 274.2 547.7C365.7 548 457.3 533 548.8 517C640.3 501 731.7 484 823 502.7C914.3 521.3 1005.7 575.7 1097 583.7C1188.3 591.7 1279.7 553.3 1371.2 526.3C1462.7 499.3 1554.3 483.7 1645.8 487C1737.3 490.3 1828.7 512.7 1874.3 523.8L1920 535L1920 1081L1874.3 1081C1828.7 1081 1737.3 1081 1645.8 1081C1554.3 1081 1462.7 1081 1371.2 1081C1279.7 1081 1188.3 1081 1097 1081C1005.7 1081 914.3 1081 823 1081C731.7 1081 640.3 1081 548.8 1081C457.3 1081 365.7 1081 274.2 1081C182.7 1081 91.3 1081 45.7 1081L0 1081Z" fill="#f8282f"></path><path d="M0 508L45.7 517.3C91.3 526.7 182.7 545.3 274.2 582.3C365.7 619.3 457.3 674.7 548.8 690.3C640.3 706 731.7 682 823 676.7C914.3 671.3 1005.7 684.7 1097 667.3C1188.3 650 1279.7 602 1371.2 591.3C1462.7 580.7 1554.3 607.3 1645.8 614.7C1737.3 622 1828.7 610 1874.3 604L1920 598L1920 1081L1874.3 1081C1828.7 1081 1737.3 1081 1645.8 1081C1554.3 1081 1462.7 1081 1371.2 1081C1279.7 1081 1188.3 1081 1097 1081C1005.7 1081 914.3 1081 823 1081C731.7 1081 640.3 1081 548.8 1081C457.3 1081 365.7 1081 274.2 1081C182.7 1081 91.3 1081 45.7 1081L0 1081Z" fill="#ec1847"></path><path d="M0 792L45.7 780.3C91.3 768.7 182.7 745.3 274.2 744.8C365.7 744.3 457.3 766.7 548.8 757C640.3 747.3 731.7 705.7 823 713.8C914.3 722 1005.7 780 1097 804.3C1188.3 828.7 1279.7 819.3 1371.2 813.2C1462.7 807 1554.3 804 1645.8 812.7C1737.3 821.3 1828.7 841.7 1874.3 851.8L1920 862L1920 1081L1874.3 1081C1828.7 1081 1737.3 1081 1645.8 1081C1554.3 1081 1462.7 1081 1371.2 1081C1279.7 1081 1188.3 1081 1097 1081C1005.7 1081 914.3 1081 823 1081C731.7 1081 640.3 1081 548.8 1081C457.3 1081 365.7 1081 274.2 1081C182.7 1081 91.3 1081 45.7 1081L0 1081Z" fill="#db185a"></path><path d="M0 976L45.7 972.3C91.3 968.7 182.7 961.3 274.2 935.5C365.7 909.7 457.3 865.3 548.8 859.3C640.3 853.3 731.7 885.7 823 910.2C914.3 934.7 1005.7 951.3 1097 941.5C1188.3 931.7 1279.7 895.3 1371.2 871C1462.7 846.7 1554.3 834.3 1645.8 839.5C1737.3 844.7 1828.7 867.3 1874.3 878.7L1920 890L1920 1081L1874.3 1081C1828.7 1081 1737.3 1081 1645.8 1081C1554.3 1081 1462.7 1081 1371.2 1081C1279.7 1081 1188.3 1081 1097 1081C1005.7 1081 914.3 1081 823 1081C731.7 1081 640.3 1081 548.8 1081C457.3 1081 365.7 1081 274.2 1081C182.7 1081 91.3 1081 45.7 1081L0 1081Z" fill="#c62368"></path></svg>