<svg id="visual" viewBox="0 0 1920 1080" width="1920" height="1080" xmlns="http://www.w3.org/2000/svg" xmlns:xlink="http://www.w3.org/1999/xlink" version="1.1"><rect x="0" y="0" width="1920" height="1080" fill="#F0FF42"></rect><path d="M0 419L45.7 412C91.3 405 182.7 391 274.2 369.3C365.7 347.7 457.3 318.3 548.8 335.8C640.3 353.3 731.7 417.7 823 434C914.3 450.3 1005.7 418.7 1097 390.8C1188.3 363 1279.7 339 1371.2 333.3C1462.7 327.7 1554.3 340.3 1645.8 318.7C1737.3 297 1828.7 241 1874.3 213L1920 185L1920 1081L1874.3 1081C1828.7 1081 1737.3 1081 1645.8 1081C1554.3 1081 1462.7 1081 1371.2 1081C1279.7 1081 1188.3 1081 1097 1081C1005.7 1081 914.3 1081 823 1081C731.7 1081 640.3 1081 548.8 1081C457.3 1081 365.7 1081 274.2 1081C182.7 1081 91.3 1081 45.7 1081L0 1081Z" fill="#ff3f00"></path><path d="M0 455L45.7 486.7C91.3 518.3 182.7 581.7 274.2 579.3C365.7 577 457.3 509 548.8 478.8C640.3 448.7 731.7 456.3 823 456.7C914.3 457 1005.7 450 1097 456.2C1188.3 462.3 1279.7 481.7 1371.2 494.3C1462.7 507 1554.3 513 1645.8 498.2C1737.3 483.3 1828.7 447.7 1874.3 429.8L1920 412L1920 1081L1874.3 1081C1828.7 1081 1737.3 1081 1645.8 1081C1554.3 1081 1462.7 1081 1371.2 1081C1279.7 1081 1188.3 1081 1097 1081C1005.7 1081 914.3 1081 823 1081C731.7 1081 640.3 1081 548.8 1081C457.3 1081 365.7 1081 274.2 1081C182.7 1081 91.3 1081 45.7 1081L0 1081Z" fill="#f8282f"></path><path d="M0 654L45.7 640C91.3 626 182.7 598 274.2 598.3C365.7 598.7 457.3 627.3 548.8 649.8C640.3 672.3 731.7 688.7 823 666.5C914.3 644.3 1005.7 583.7 1097 570.2C1188.3 556.7 1279.7 590.3 1371.2 586.3C1462.7 582.3 1554.3 540.7 1645.8 556.2C1737.3 571.7 1828.7 644.3 1874.3 680.7L1920 717L1920 1081L1874.3 1081C1828.7 1081 1737.3 1081 1645.8 1081C1554.3 1081 1462.7 1081 1371.2 1081C1279.7 1081 1188.3 1081 1097 1081C1005.7 1081 914.3 1081 823 1081C731.7 1081 640.3 1081 548.8 1081C457.3 1081 365.7 1081 274.2 1081C182.7 1081 91.3 1081 45.7 1081L0 1081Z" fill="#ec1847"></path><path d="M0 763L45.7 765.3C91.3 767.7 182.7 772.3 274.2 766C365.7 759.7 457.3 742.3 548.8 737.7C640.3 733 731.7 741 823 760.3C914.3 779.7 1005.7 810.3 1097 812C1188.3 813.7 1279.7 786.3 1371.2 770.3C1462.7 754.3 1554.3 749.7 1645.8 755.3C1737.3 761 1828.7 777 1874.3 785L1920 793L1920 1081L1874.3 1081C1828.7 1081 1737.3 1081 1645.8 1081C1554.3 1081 1462.7 1081 1371.2 1081C1279.7 1081 1188.3 1081 1097 1081C1005.7 1081 914.3 1081 823 1081C731.7 1081 640.3 1081 548.8 1081C457.3 1081 365.7 1081 274.2 1081C182.7 1081 91.3 1081 45.7 1081L0 1081Z" fill="#db185a"></path><path d="M0 813L45.7 839.7C91.3 866.3 182.7 919.7 274.2 920.2C365.7 920.7 457.3 868.3 548.8 869C640.3 869.7 731.7 923.3 823 928.7C914.3 934 1005.7 891 1097 864.7C1188.3 838.3 1279.7 828.7 1371.2 846C1462.7 863.3 1554.3 907.7 1645.8 912.3C1737.3 917 1828.7 882 1874.3 864.5L1920 847L1920 1081L1874.3 1081C1828.7 1081 1737.3 1081 1645.8 1081C1554.3 1081 1462.7 1081 1371.2 1081C1279.7 1081 1188.3 1081 1097 1081C1005.7 1081 914.3 1081 823 1081C731.7 1081 640.3 1081 548.8 1081C457.3 1081 365.7 1081 274.2 1081C182.7 1081 91.3 1081 45.7 1081L0 1081Z" fill="#c62368"></path></svg>